<svg id="Layer_1" data-name="Layer 1" xmlns="http://www.w3.org/2000/svg" viewBox="0 0 184.23 23.66"><defs><style>.cls-1{fill:#e1680b;}.cls-2{fill:#fff;}</style></defs><path class="cls-1" d="M46.38,9.4a1.43,1.43,0,0,1,1.54-.85c.73,0,1.47,0,2.21,0a1.48,1.48,0,0,1,1.32.72,21.25,21.25,0,0,0,1.92,2.4A3.41,3.41,0,0,0,58,12.2c2.36-1.42,4.71-2.84,7.06-4.28a1.28,1.28,0,0,1,1.55,0l2.12,1.42-.29.31c-.66.65-1.32,1.3-2,2a1.15,1.15,0,0,0-.06,1.67,1.13,1.13,0,0,0,1.67-.05c.86-.84,1.71-1.7,2.57-2.55l.07,0,1.77,1.18L70.19,14.2a1.11,1.11,0,0,0-.3,1.16,1.08,1.08,0,0,0,.89.79,1.19,1.19,0,0,0,1.09-.4c.82-.82,1.64-1.63,2.45-2.46a.57.57,0,0,1,.68-.18,9.05,9.05,0,0,0,3.23.4,6.67,6.67,0,0,1,3.34.76,6.81,6.81,0,0,1,3.74,5.2c0,.09,0,.19.07.29v.15h-39Z" transform="translate(-1.93 -3.12)"/><path class="cls-1" d="M85.38,25.93a1.46,1.46,0,0,1-1.53.85q-18,0-35.94,0a1.46,1.46,0,0,1-1.53-.85V22.19h39Z" transform="translate(-1.93 -3.12)"/><path class="cls-1" d="M64,5.94,57.76,9.7c-.41-.34-.84-.66-1.24-1a1.1,1.1,0,0,1-.1-1.55A5.5,5.5,0,0,1,61.56,5,4.73,4.73,0,0,1,64,5.94Z" transform="translate(-1.93 -3.12)"/><path class="cls-1" d="M22.94,24.76a2.07,2.07,0,0,1-.15.8,1.83,1.83,0,0,1-.4.64,1.93,1.93,0,0,1-1.37.58H7.28a5.85,5.85,0,0,1-1.13-.13,6.17,6.17,0,0,1-1.21-.41,5.12,5.12,0,0,1-1.13-.72,4.68,4.68,0,0,1-1-1.06A5.32,5.32,0,0,1,2.18,23a6.64,6.64,0,0,1-.25-1.86V10.34a6.65,6.65,0,0,1,.13-1.2,6.09,6.09,0,0,1,.39-1.26,5.69,5.69,0,0,1,.68-1.19,5.42,5.42,0,0,1,1-1A5.2,5.2,0,0,1,5.52,5a5.66,5.66,0,0,1,1.76-.26H22.76v4H7.28a1.48,1.48,0,0,0-1.14.42,1.67,1.67,0,0,0-.4,1.23V21.16a1.68,1.68,0,0,0,.41,1.2,1.47,1.47,0,0,0,1.13.42H19.13v-5H9v-4H21a1.95,1.95,0,0,1,1.37.6,2,2,0,0,1,.4.64,2,2,0,0,1,.15.78Z" transform="translate(-1.93 -3.12)"/><path class="cls-1" d="M43.71,21.16A6.3,6.3,0,0,1,43.46,23a5,5,0,0,1-.66,1.44,4.42,4.42,0,0,1-.95,1.06,5,5,0,0,1-1.14.72,5.61,5.61,0,0,1-2.35.54H31.49a6,6,0,0,1-1.72-.29,5,5,0,0,1-1.74-1,5.22,5.22,0,0,1-1.33-1.73,5.81,5.81,0,0,1-.54-2.63V15.75a5.76,5.76,0,0,1,.54-2.61A5.36,5.36,0,0,1,28,11.4a5.14,5.14,0,0,1,1.74-1,6,6,0,0,1,1.72-.29h6.87a5.15,5.15,0,0,1,2.49.56,4.84,4.84,0,0,1,1.66,1.39,5.79,5.79,0,0,1,.92,1.82,6.63,6.63,0,0,1,.28,1.83ZM39.9,15.78a1.71,1.71,0,0,0-.39-1.23,1.55,1.55,0,0,0-1.15-.4H31.52a1.54,1.54,0,0,0-1.15.41,1.62,1.62,0,0,0-.4,1.19v5.41a1.63,1.63,0,0,0,.4,1.2,1.5,1.5,0,0,0,1.15.42h6.84a1.48,1.48,0,0,0,1.16-.42,1.66,1.66,0,0,0,.38-1.2Z" transform="translate(-1.93 -3.12)"/><path class="cls-2" d="M107,21.16a6.64,6.64,0,0,1-.25,1.86,5.62,5.62,0,0,1-.66,1.44,4.64,4.64,0,0,1-.95,1.06,5.18,5.18,0,0,1-1.14.72,6.31,6.31,0,0,1-1.2.41,6,6,0,0,1-1.15.13H91.38v-4h10.28a1.52,1.52,0,0,0,1.17-.42,1.63,1.63,0,0,0,.4-1.2c0-1.06-.56-1.6-1.54-1.6h-5.9a4.51,4.51,0,0,1-2.14-.46A4.32,4.32,0,0,1,92.22,18a4.38,4.38,0,0,1-.79-1.49A5.24,5.24,0,0,1,91.19,15a5.08,5.08,0,0,1,.45-2.26,4.41,4.41,0,0,1,2.64-2.31,5.29,5.29,0,0,1,1.51-.25h9.36v4H95.82a1.23,1.23,0,0,0-.47.07.58.58,0,0,0-.24.18.49.49,0,0,0-.1.25,2.18,2.18,0,0,0,0,.25.81.81,0,0,0,.08.39.46.46,0,0,0,.19.2.61.61,0,0,0,.25.07h6.17a5.15,5.15,0,0,1,2.49.56,4.92,4.92,0,0,1,1.65,1.39,5.68,5.68,0,0,1,.92,1.82A6.67,6.67,0,0,1,107,21.16Z" transform="translate(-1.93 -3.12)"/><path class="cls-2" d="M113.57,26.78h-3.81V3.12h3.81Zm13.74,0H123.5v-11a1.7,1.7,0,0,0-.38-1.19,1.48,1.48,0,0,0-1.14-.41h-6.87v-4H122a5.18,5.18,0,0,1,1.14.13,5.42,5.42,0,0,1,1.19.41,5.27,5.27,0,0,1,1.14.71,4.67,4.67,0,0,1,1,1.07,5.71,5.71,0,0,1,.66,1.43,6.23,6.23,0,0,1,.25,1.85Z" transform="translate(-1.93 -3.12)"/><path class="cls-2" d="M148,21.16a6.3,6.3,0,0,1-.25,1.86,5,5,0,0,1-.66,1.44,4.42,4.42,0,0,1-1,1.06,5.12,5.12,0,0,1-1.13.72,6.31,6.31,0,0,1-1.2.41,6,6,0,0,1-1.15.13h-6.87a6,6,0,0,1-1.73-.29,5,5,0,0,1-1.74-1A5.22,5.22,0,0,1,131,23.79a5.81,5.81,0,0,1-.54-2.63V15.75a5.76,5.76,0,0,1,.54-2.61,5.36,5.36,0,0,1,1.33-1.74,5.14,5.14,0,0,1,1.74-1,6,6,0,0,1,1.73-.29h6.87a5.2,5.2,0,0,1,2.49.56,4.9,4.9,0,0,1,1.65,1.39,5.58,5.58,0,0,1,.92,1.82,6.63,6.63,0,0,1,.28,1.83Zm-3.81-5.38a1.71,1.71,0,0,0-.39-1.23,1.54,1.54,0,0,0-1.14-.4h-6.85a1.54,1.54,0,0,0-1.15.41,1.62,1.62,0,0,0-.4,1.19v5.41a1.63,1.63,0,0,0,.4,1.2,1.5,1.5,0,0,0,1.15.42h6.85a1.47,1.47,0,0,0,1.15-.42,1.66,1.66,0,0,0,.38-1.2Z" transform="translate(-1.93 -3.12)"/><path class="cls-2" d="M168.3,15.66a6.69,6.69,0,0,1-.28,1.79,5.54,5.54,0,0,1-.9,1.78,5.14,5.14,0,0,1-1.63,1.38,5,5,0,0,1-2.44.55h-6.87v-3.8h6.87a1.46,1.46,0,0,0,1.2-.5,1.79,1.79,0,0,0,.43-1.23,1.58,1.58,0,0,0-.48-1.23,1.62,1.62,0,0,0-1.15-.45h-6.87a1.49,1.49,0,0,0-1.2.5,1.86,1.86,0,0,0-.42,1.24v5.58a1.61,1.61,0,0,0,.47,1.25,1.69,1.69,0,0,0,1.18.44h6.84v3.82h-6.87a5.78,5.78,0,0,1-1.71-.29,5,5,0,0,1-1.69-.95,5.35,5.35,0,0,1-1.32-1.71,5.67,5.67,0,0,1-.52-2.56V15.66a6.26,6.26,0,0,1,.28-1.79,5.3,5.3,0,0,1,.9-1.79,4.85,4.85,0,0,1,1.62-1.37,5,5,0,0,1,2.44-.56h6.87a5.78,5.78,0,0,1,1.71.29,5.13,5.13,0,0,1,1.7,1,5.22,5.22,0,0,1,1.31,1.71A5.67,5.67,0,0,1,168.3,15.66Z" transform="translate(-1.93 -3.12)"/><path class="cls-2" d="M186.17,21.16a6.64,6.64,0,0,1-.25,1.86,5.62,5.62,0,0,1-.66,1.44,4.42,4.42,0,0,1-.95,1.06,5,5,0,0,1-1.14.72,5.87,5.87,0,0,1-1.2.41,6,6,0,0,1-1.15.13H170.51v-4h10.28a1.52,1.52,0,0,0,1.17-.42,1.63,1.63,0,0,0,.4-1.2c-.05-1.06-.56-1.6-1.54-1.6h-5.9a4.51,4.51,0,0,1-2.14-.46A4.32,4.32,0,0,1,171.35,18a4.38,4.38,0,0,1-.79-1.49,5.24,5.24,0,0,1-.24-1.49,5.08,5.08,0,0,1,.45-2.26,4.53,4.53,0,0,1,1.14-1.48,4.44,4.44,0,0,1,1.5-.83,5.35,5.35,0,0,1,1.51-.25h9.36v4H175a1.23,1.23,0,0,0-.47.07.58.58,0,0,0-.24.18.49.49,0,0,0-.1.25,2.18,2.18,0,0,0,0,.25,1.15,1.15,0,0,0,.08.39.46.46,0,0,0,.19.2.61.61,0,0,0,.25.07h6.17a5.15,5.15,0,0,1,2.49.56A5.05,5.05,0,0,1,185,17.51a5.66,5.66,0,0,1,.91,1.82A6.67,6.67,0,0,1,186.17,21.16Z" transform="translate(-1.93 -3.12)"/></svg>